<svg width="15" height="55.117999999999995" xmlns="http://www.w3.org/2000/svg">
 <g>
  <title>background</title>
  <rect x="-1" y="-1" width="17" height="57.118" id="canvas_background" fill="none"/>
 </g>

 <g>
  <title>Layer 1</title>
  <g id="Group_322" transform="rotate(-180 7.600005149841309,27.559005737304688) ">
   <g id="Group_269">
    <g id="vine_bottle_2">
     <g id="Group_266">
      <path id="Path_210" d="m7.59301,55.11801c-3.779,0 -7.593,-0.96 -7.593,-3.1l0,-17.53c0,-2.642 1.092,-6.864 2.148,-10.947c0.984,-3.8 2,-7.734 2,-9.925l0,-9.79a1,1 0 0 1 2,0l0,9.787c0,2.445 -1,6.321 -2.064,10.426c-1.025,3.962 -2.085,8.058 -2.085,10.446l0,17.448c0.309,0.377 2.217,1.186 5.593,1.186s5.284,-0.809 5.594,-1.186l0,-17.449c0,-2.388 -1.061,-6.484 -2.086,-10.446c-1.062,-4.1 -2.065,-7.981 -2.065,-10.426l0,-9.79a1,1 0 0 1 2,0l0,9.791c0,2.191 1.018,6.122 2,9.925c1.057,4.083 2.15,8.3 2.15,10.947l0,17.528c0.002,2.145 -3.812,3.105 -7.592,3.105z" fill="#333"/>
     </g>
     <g id="Group_267">
      <path id="Path_211" d="m7.59301,47.62701c-3.779,0 -7.593,-0.959 -7.593,-3.1a1,1 0 0 1 2,-0.087c0.3,0.375 2.208,1.19 5.6,1.19s5.3,-0.815 5.6,-1.19a1,1 0 0 1 2,0.087c-0.013,2.141 -3.827,3.1 -7.607,3.1z" fill="#333"/>
     </g>
     <g id="Group_268">
      <path id="Path_212" d="m7.59301,39.84001c-3.779,0 -7.593,-0.96 -7.593,-3.1a1,1 0 0 1 2,-0.086c0.3,0.374 2.207,1.19 5.6,1.19s5.3,-0.816 5.6,-1.19a1,1 0 0 1 2,0.086c-0.013,2.14 -3.827,3.1 -7.607,3.1z" fill="#333"/>
     </g>
    </g>
   </g>
   <g id="Group_298">
    <path id="Path_235" d="m7.60601,5.01901c-2.423,0 -4.182,-1.055 -4.182,-2.509s1.759,-2.51 4.182,-2.51s4.184,1.055 4.184,2.51s-1.76,2.509 -4.184,2.509zm-2.1,-2.509a4.605,4.605 0 0 0 4.209,0a4.6,4.6 0 0 0 -4.209,0z" fill="#333"/>
   </g>
   <g id="Group_299">
    <path id="Path_236" d="m7.60201,8.02301a6.048,6.048 0 0 1 -2.934,-0.671a1,1 0 0 1 0.988,-1.738a5.123,5.123 0 0 0 3.892,0a1,1 0 1 1 0.988,1.738a6.048,6.048 0 0 1 -2.934,0.671z" fill="#333"/>
   </g>
  </g>
 </g>
</svg>